<svg width="24" height="24" viewBox="0 0 24 24" fill="none" xmlns="http://www.w3.org/2000/svg">
<path d="M3 20.5C3 19.9477 3.50368 19.5 4.125 19.5H19.875C20.4963 19.5 21 19.9477 21 20.5C21 21.0523 20.4963 21.5 19.875 21.5H4.125C3.50368 21.5 3 21.0523 3 20.5Z" fill="white" style="fill:white;fill-opacity:1;"/>
<path d="M17.9496 3.37873C16.778 2.2071 14.8784 2.20709 13.7068 3.37872L5.88348 11.202C5.70064 11.3848 5.56816 11.6118 5.49891 11.861L4.04145 17.104C3.81221 17.9287 4.57123 18.6878 5.39594 18.4585L10.639 17.0011C10.8881 16.9318 11.1151 16.7994 11.298 16.6165L19.1213 8.79326C20.2929 7.62162 20.2929 5.72201 19.1213 4.55037L17.9496 3.37873Z" fill="white" style="fill:white;fill-opacity:1;"/>
</svg>
