<svg width="14" height="14" viewBox="0 0 14 14" fill="none" xmlns="http://www.w3.org/2000/svg">
<path fill-rule="evenodd" clip-rule="evenodd" d="M12.8333 6.99998C12.8333 3.77823 10.2217 1.16665 6.99996 1.16665C3.77821 1.16665 1.16663 3.77823 1.16663 6.99998C1.16663 10.2217 3.77821 12.8333 6.99996 12.8333C10.2217 12.8333 12.8333 10.2217 12.8333 6.99998ZM6.41663 9.33331C6.41663 9.1786 6.47808 9.03023 6.58748 8.92083C6.69688 8.81144 6.84525 8.74998 6.99996 8.74998H7.00463C7.15934 8.74998 7.30771 8.81144 7.4171 8.92083C7.5265 9.03023 7.58796 9.1786 7.58796 9.33331C7.58796 9.48802 7.5265 9.6364 7.4171 9.74579C7.30771 9.85519 7.15934 9.91665 7.00463 9.91665H6.99996C6.84525 9.91665 6.69688 9.85519 6.58748 9.74579C6.47808 9.6364 6.41663 9.48802 6.41663 9.33331ZM6.99996 4.08331C7.15467 4.08331 7.30304 4.14477 7.41244 4.25417C7.52183 4.36356 7.58329 4.51194 7.58329 4.66665V7.58331C7.58329 7.73802 7.52183 7.8864 7.41244 7.99579C7.30304 8.10519 7.15467 8.16665 6.99996 8.16665C6.84525 8.16665 6.69688 8.10519 6.58748 7.99579C6.47808 7.8864 6.41663 7.73802 6.41663 7.58331V4.66665C6.41663 4.51194 6.47808 4.36356 6.58748 4.25417C6.69688 4.14477 6.84525 4.08331 6.99996 4.08331Z" fill="#FF9AA7" style="fill:#FF9AA7;fill:color(display-p3 1.0000 0.6039 0.6549);fill-opacity:1;"/>
</svg>
