<svg width="16" height="16" viewBox="0 0 16 16" fill="none" xmlns="http://www.w3.org/2000/svg">
<path fill-rule="evenodd" clip-rule="evenodd" d="M1 8C1 4.13401 4.13401 1 8 1C11.866 1 15 4.13401 15 8C15 11.866 11.866 15 8 15C4.13401 15 1 11.866 1 8ZM10.595 7.09497C10.8683 6.82161 10.8683 6.37839 10.595 6.10503C10.3216 5.83166 9.87839 5.83166 9.60503 6.10503L7.3 8.41005L6.39497 7.50503C6.12161 7.23166 5.67839 7.23166 5.40503 7.50503C5.13166 7.77839 5.13166 8.22161 5.40503 8.49497L6.80503 9.89497C7.07839 10.1683 7.52161 10.1683 7.79497 9.89497L10.595 7.09497Z" fill="#4E5051" style="fill:#4E5051;fill:color(display-p3 0.3059 0.3137 0.3176);fill-opacity:1;"/>
</svg>
