<svg width="36" height="31" viewBox="0 0 36 31" fill="none" xmlns="http://www.w3.org/2000/svg">
<g clip-path="url(#clip0_1051_14441)">
<path fill-rule="evenodd" clip-rule="evenodd" d="M22.9541 23.2055C17.584 23.2055 21.1201 23.6328 21.8496 17.7223C22.9424 8.88342 31.2422 8.88342 32.4668 17.7223C33.252 23.4102 36.6182 23.2055 31.3623 23.2055H29.2676C29.2588 24.6534 29.0361 25.3922 30.5186 26.2052C31.998 27.0152 36 27.4336 36 29.4898V30.8071C36 30.914 35.915 31 35.8096 31C23.874 31 11.9355 31 0 31V27.1873C1.59082 26.4693 6.6416 25.1193 7.03418 23.1046C7.13965 22.5646 5.90918 20.7577 5.58398 19.7993C5.08008 18.9833 4.76953 17.4286 5.37012 16.5503C5.72754 16.0252 5.5752 14.7998 5.5752 14.1322C5.5752 8.85078 14.707 8.85375 14.707 14.1322C14.707 14.6633 14.6016 16.0667 14.8477 16.4524C15.4688 17.4227 15.2666 18.8795 14.6982 19.7993C14.4316 20.7102 13.2744 22.6061 13.333 23.1046C13.752 26.6977 18.1289 24.9175 19.9863 27.6086C21.2168 27.0775 22.8516 26.7689 23.9473 26.1043C25.251 25.3151 25.0283 24.5199 25.0195 23.2055H22.9541ZM15.3516 0H12.0146C11.502 0 11.0654 0.183959 10.6992 0.548909C10.3359 0.913859 10.1572 1.35892 10.1572 1.88113V5.17755C10.1572 5.69975 10.3389 6.14481 10.6992 6.50976C11.0596 6.87471 11.499 7.05867 12.0146 7.05867H13.4473C13.3418 7.47406 13.21 7.86868 13.0459 8.2366C12.8848 8.61045 12.6123 8.9665 12.2344 9.30771C12.958 9.11782 13.6025 8.83001 14.1709 8.4532C14.7363 8.07934 15.2285 7.61055 15.6328 7.05867H16.8604C17.373 7.05867 17.8096 6.87175 18.1758 6.50976C18.5391 6.14481 18.7178 5.69975 18.7178 5.17755V1.87816C18.7178 1.35892 18.5361 0.916826 18.1758 0.545942C17.8184 0.178025 17.3789 0 16.8633 0H15.3516ZM25.1104 3.78599V7.08241C25.1104 7.38208 25.0576 7.66395 24.9492 7.92506C24.8438 8.18616 24.6885 8.42353 24.4746 8.63419C24.3838 8.72617 24.2871 8.80925 24.1875 8.87749C24.085 8.95166 23.9795 9.01397 23.8711 9.06738C23.8682 9.07035 23.8594 9.07035 23.8535 9.07628C23.7129 9.14156 23.5723 9.18903 23.4229 9.22167C23.2676 9.25431 23.1064 9.27211 22.9424 9.27211H21.9199C21.9404 9.33738 21.9609 9.40563 21.9844 9.4709C22.0459 9.65486 22.1191 9.83585 22.1982 10.0139V10.0168C22.2686 10.183 22.3652 10.3403 22.4854 10.4975C22.6084 10.6607 22.7549 10.818 22.9307 10.9782C23.0566 11.0909 23.0713 11.2838 22.9541 11.4143C22.875 11.5063 22.7578 11.539 22.6523 11.5093C22.2744 11.4084 21.9141 11.2868 21.5801 11.1354C21.2432 10.9871 20.9238 10.812 20.625 10.6132C20.3291 10.4174 20.0508 10.1949 19.793 9.9486C19.5762 9.74091 19.3711 9.51244 19.1777 9.27211H18.1055C17.9033 9.27211 17.707 9.24837 17.5225 9.19793C17.3379 9.14749 17.1621 9.07035 16.9951 8.9665C16.8516 8.88046 16.8076 8.6876 16.8926 8.54221C16.9775 8.39682 17.168 8.35232 17.3115 8.43836C17.4258 8.50957 17.5488 8.56298 17.6836 8.60155C17.8154 8.64012 17.959 8.65496 18.1055 8.65496H19.3301C19.4238 8.65496 19.5146 8.6965 19.5762 8.77957C19.7695 9.04068 19.9805 9.28101 20.2148 9.50057C20.4434 9.72014 20.6953 9.91893 20.9648 10.097C21.2227 10.2661 21.498 10.4204 21.7881 10.5539C21.7295 10.4589 21.6855 10.364 21.6416 10.269C21.5596 10.0792 21.4805 9.88333 21.4131 9.67563C21.3486 9.4798 21.2871 9.27804 21.2314 9.07331C21.2197 9.04068 21.2139 9.0021 21.2139 8.9665C21.2139 8.79738 21.3486 8.65496 21.5215 8.65496H22.9453C23.0684 8.65496 23.1826 8.64309 23.2939 8.61639C23.3994 8.59265 23.499 8.55704 23.5928 8.5155C23.5957 8.51254 23.6016 8.51254 23.6045 8.5066C23.6836 8.46803 23.7598 8.42352 23.8301 8.37309C23.9033 8.31968 23.9736 8.26034 24.0381 8.18913C24.1904 8.03484 24.3047 7.86572 24.3779 7.68176C24.4512 7.4978 24.4893 7.29604 24.4893 7.07647V3.79192C24.4893 3.57236 24.4512 3.36763 24.3779 3.18664C24.3047 3.00565 24.1904 2.83356 24.0381 2.67927C23.8857 2.52498 23.7187 2.40926 23.5371 2.33509C23.3555 2.26091 23.1562 2.22234 22.9395 2.22234H20.7773C20.6104 2.22234 20.4697 2.08585 20.4697 1.9108C20.4697 1.74167 20.6045 1.59925 20.7773 1.59925H22.9395C23.2354 1.59925 23.5078 1.65266 23.7656 1.76244C24.0234 1.86926 24.252 2.02651 24.4658 2.24014C24.6738 2.4508 24.835 2.68817 24.9375 2.94927C25.043 3.21037 25.0986 3.48928 25.0986 3.78599H25.1104Z" fill="#6E7FFF" style="fill:#6E7FFF;fill:color(display-p3 0.4314 0.4980 1.0000);fill-opacity:1;"/>
</g>
<defs>
<clipPath id="clip0_1051_14441">
<rect width="36" height="31" fill="white" style="fill:white;fill-opacity:1;"/>
</clipPath>
</defs>
</svg>
