<svg width="36" height="27" viewBox="0 0 36 27" fill="none" xmlns="http://www.w3.org/2000/svg">
<g clip-path="url(#clip0_1051_14478)">
<path fill-rule="evenodd" clip-rule="evenodd" d="M3.08207 26.9998V15.5609C2.45512 15.798 1.86918 15.8037 1.38285 15.639C1.002 15.5118 0.68266 15.2863 0.445355 14.9914C0.21098 14.6995 0.0586362 14.341 0.0146908 13.9478C-0.0556217 13.3379 0.128949 12.647 0.656292 12.0023C0.68266 11.9705 0.711956 11.9387 0.747113 11.9127L17.5723 0.144316C17.7715 -0.0349127 18.0762 -0.0551482 18.2959 0.115409L35.1563 11.8607C35.1797 11.878 35.2032 11.8983 35.2237 11.9214C35.9327 12.673 36.1084 13.5084 35.9385 14.2138C35.8536 14.5636 35.6836 14.8729 35.4522 15.1331C35.2207 15.3932 34.9219 15.5927 34.585 15.7112C34.0489 15.902 33.4131 15.8962 32.7686 15.5956V26.9998H31.2686V14.9452C31.2686 14.6792 19.2159 6.48671 18.0557 5.59635C16.8282 6.51851 4.58207 14.6416 4.58207 14.9856V26.9998H3.08207ZM6.90239 26.9969C6.90239 22.1288 10.9424 24.823 11.2969 21.8368C11.335 21.5131 10.5586 20.2729 10.3799 19.6774C9.99907 19.0761 9.86137 18.125 10.2803 17.492C10.4444 17.2405 10.3741 16.3212 10.3741 15.9743C10.3741 14.9943 10.8428 14.4335 11.4786 13.9074C11.71 13.7166 11.751 13.4882 12.0879 13.4073C13.7608 13.0083 16.4971 13.9161 16.4971 15.9772C16.4971 16.4137 16.3946 17.2144 16.6348 17.5584C16.8663 17.8909 16.8955 18.3737 16.8106 18.8246C16.7198 18.894 16.6289 18.9692 16.5411 19.0472C16.3418 19.2207 16.1426 19.4143 15.9463 19.6254C15.9375 19.634 15.9258 19.6427 15.917 19.6514C15.8233 19.7439 15.753 19.8595 15.7149 19.9954C15.6358 20.2845 15.8174 20.5764 16.0284 20.7643C15.7823 21.2182 15.4776 21.6489 15.5157 21.8397C15.5772 22.1461 15.8086 22.4294 16.1368 22.6867V22.6925C16.1368 22.7098 16.1397 22.7243 16.1397 22.7416C16.1514 22.8544 16.169 22.9613 16.1954 23.0567C16.2247 23.1637 16.2657 23.2678 16.3155 23.3661C16.4034 23.5366 16.5205 23.6869 16.67 23.8026C16.7432 23.8604 16.8252 23.9124 16.9131 23.9529C16.9366 23.9789 16.9571 24.0049 16.9805 24.028L17.0186 24.0714C16.3389 24.1986 15.8643 24.32 15.4659 24.7103C15.0235 25.141 14.8565 25.7481 14.8565 26.8408C14.8565 26.8957 14.8623 26.9506 14.8682 26.9998L6.90239 26.9969ZM21.1875 18.6569C22.0254 13.7831 26.8506 13.8987 27.5772 19.0067C28.0547 22.3687 30.0967 22.2473 26.9063 22.2473H25.6348C25.6289 23.103 25.4942 23.5395 26.3936 24.0223C27.293 24.5021 29.0977 24.7478 29.0977 25.9649V26.7425C29.0977 26.8061 29.045 26.8552 28.9834 26.8552H24.0088V26.8379C24.0088 25.7452 23.8389 25.1381 23.3995 24.7074C23.0508 24.3692 22.6465 24.2333 22.0957 24.1177C22.2041 24.0685 22.3067 24.0136 22.4034 23.9587C23.1944 23.4904 23.0596 23.0192 23.0538 22.2444H22.708C22.7022 22.2039 22.6963 22.1664 22.6875 22.1317H22.6846C22.6465 21.9611 22.585 21.7963 22.4971 21.6489C22.4825 21.6229 22.4649 21.5969 22.4502 21.5738V21.461C22.5557 21.0737 22.585 20.6458 22.5147 20.2498C22.4385 19.8046 22.2422 19.3854 21.9053 19.0732C21.7325 18.9113 21.5391 18.7928 21.3282 18.709C21.2842 18.6887 21.2373 18.6714 21.1875 18.6569ZM16.8018 20.192C17.9971 18.8882 19.3799 18.1829 20.4141 19.3392C20.6866 19.3507 20.9297 19.4404 21.1319 19.6283C21.5567 20.0243 21.6241 20.7643 21.4307 21.3512V21.8628C21.5625 21.9496 21.6475 22.1086 21.6856 22.2907C21.712 22.4092 21.7178 22.5393 21.7032 22.6607C21.6914 22.7879 21.6592 22.9122 21.6065 23.0134C21.5332 23.1579 21.4219 23.2591 21.2666 23.2822C21.1172 23.4412 20.9707 23.606 20.8389 23.7679C20.6954 23.9471 20.5723 24.1119 20.4903 24.2535C20.4258 24.3605 20.4463 24.4299 20.4698 24.5079C20.4815 24.5484 20.4932 24.5889 20.502 24.6322C20.7657 24.6871 21 24.7305 21.2139 24.771C22.5616 25.0196 22.9834 25.0976 22.9834 26.8321C22.9834 26.9188 22.9102 26.9911 22.8223 26.9911H16.1309C16.0401 26.9911 15.9698 26.9188 15.9698 26.8321C15.9698 25.0976 16.3887 25.0225 17.7393 24.771C17.9532 24.7305 18.1934 24.6871 18.4541 24.6322C18.4629 24.5975 18.4747 24.5657 18.4864 24.5339C18.5127 24.4588 18.5391 24.3807 18.46 24.2535C18.375 24.1148 18.252 23.9471 18.1114 23.7679C17.9825 23.606 17.833 23.4383 17.6866 23.2822C17.5342 23.2591 17.42 23.1579 17.3467 23.0134C17.294 22.9151 17.2618 22.7879 17.25 22.6607C17.2383 22.5364 17.2442 22.4063 17.2676 22.2907C17.3057 22.1086 17.3907 21.9496 17.5196 21.8628L17.3438 21.7588C17.2969 21.2529 17.4346 20.3625 16.8018 20.192ZM28.2071 0.939284L32.8038 1.12429V7.24988L28.2071 4.25502V0.939284Z" fill="#6E7FFF" style="fill:#6E7FFF;fill:color(display-p3 0.4314 0.4980 1.0000);fill-opacity:1;"/>
</g>
<defs>
<clipPath id="clip0_1051_14478">
<rect width="36" height="27" fill="white" style="fill:white;fill-opacity:1;"/>
</clipPath>
</defs>
</svg>
