<svg width="24" height="25" viewBox="0 0 24 25" fill="none" xmlns="http://www.w3.org/2000/svg">
<path fill-rule="evenodd" clip-rule="evenodd" d="M22 12.5C22 18.023 17.523 22.5 12 22.5C6.477 22.5 2 18.023 2 12.5C2 6.977 6.477 2.5 12 2.5C17.523 2.5 22 6.977 22 12.5ZM11 8.5C11 8.76522 11.1054 9.01957 11.2929 9.20711C11.4804 9.39464 11.7348 9.5 12 9.5H12.008C12.2732 9.5 12.5276 9.39464 12.7151 9.20711C12.9026 9.01957 13.008 8.76522 13.008 8.5C13.008 8.23478 12.9026 7.98043 12.7151 7.79289C12.5276 7.60536 12.2732 7.5 12.008 7.5H12C11.7348 7.5 11.4804 7.60536 11.2929 7.79289C11.1054 7.98043 11 8.23478 11 8.5ZM12 17.5C12.2652 17.5 12.5196 17.3946 12.7071 17.2071C12.8946 17.0196 13 16.7652 13 16.5V11.5C13 11.2348 12.8946 10.9804 12.7071 10.7929C12.5196 10.6054 12.2652 10.5 12 10.5C11.7348 10.5 11.4804 10.6054 11.2929 10.7929C11.1054 10.9804 11 11.2348 11 11.5V16.5C11 16.7652 11.1054 17.0196 11.2929 17.2071C11.4804 17.3946 11.7348 17.5 12 17.5Z" fill="#6E7FFF" style="fill:#6E7FFF;fill:color(display-p3 0.4314 0.4980 1.0000);fill-opacity:1;"/>
</svg>
