<svg width="20" height="19" viewBox="0 0 20 19" fill="none" xmlns="http://www.w3.org/2000/svg">
<path d="M8.84903 1.53006C9.37113 0.662506 10.6289 0.662504 11.151 1.53006L13.244 5.00783C13.4315 5.31951 13.7375 5.54179 14.0918 5.62386L18.0462 6.53969C19.0326 6.76815 19.4213 7.96436 18.7575 8.729L16.0967 11.7942C15.8583 12.0689 15.7414 12.4286 15.7728 12.791L16.1238 16.8347C16.2113 17.8435 15.1938 18.5828 14.2615 18.1878L10.524 16.6044C10.1891 16.4625 9.81093 16.4625 9.47599 16.6044L5.73857 18.1878C4.80625 18.5828 3.78869 17.8435 3.87624 16.8347L4.22718 12.791C4.25863 12.4286 4.14177 12.0689 3.90332 11.7942L1.24252 8.729C0.578761 7.96436 0.967431 6.76815 1.95387 6.53969L5.90818 5.62386C6.26256 5.54179 6.56851 5.31951 6.75607 5.00783L8.84903 1.53006Z" fill="#6E7FFF" style="fill:#6E7FFF;fill:color(display-p3 0.4314 0.4980 1.0000);fill-opacity:1;"/>
</svg>
