<svg width="35" height="34" viewBox="0 0 35 34" fill="none" xmlns="http://www.w3.org/2000/svg">
<path d="M17.5 0C22.0087 0 26.3327 1.79107 29.5208 4.97919C32.7089 8.1673 34.5 12.4913 34.5 17C34.5 21.5087 32.7089 25.8327 29.5208 29.0208C26.3327 32.2089 22.0087 34 17.5 34C12.9913 34 8.6673 32.2089 5.47919 29.0208C2.29107 25.8327 0.5 21.5087 0.5 17C0.5 12.4913 2.29107 8.1673 5.47919 4.97919C8.6673 1.79107 12.9913 0 17.5 0ZM19.7568 9.163C19.7568 8.59941 19.5329 8.05891 19.1344 7.6604C18.7358 7.26188 18.1953 7.038 17.6318 7.038C17.0682 7.038 16.5277 7.26188 16.1291 7.6604C15.7306 8.05891 15.5067 8.59941 15.5067 9.163V15.0067H9.663C9.09941 15.0067 8.55891 15.2306 8.1604 15.6291C7.76188 16.0277 7.538 16.5682 7.538 17.1318C7.538 17.6953 7.76188 18.2358 8.1604 18.6344C8.55891 19.0329 9.09941 19.2568 9.663 19.2568H15.5067V25.1005C15.5067 25.6641 15.7306 26.2046 16.1291 26.6031C16.5277 27.0016 17.0682 27.2255 17.6318 27.2255C18.1953 27.2255 18.7358 27.0016 19.1344 26.6031C19.5329 26.2046 19.7568 25.6641 19.7568 25.1005V19.2568H25.6005C26.1641 19.2568 26.7046 19.0329 27.1031 18.6344C27.5016 18.2358 27.7255 17.6953 27.7255 17.1318C27.7255 16.5682 27.5016 16.0277 27.1031 15.6291C26.7046 15.2306 26.1641 15.0067 25.6005 15.0067H19.7568V9.163Z" fill="#6E7FFF" style="fill:#6E7FFF;fill:color(display-p3 0.4327 0.4989 1.0000);fill-opacity:1;"/>
</svg>
