<svg width="121" height="120" viewBox="0 0 121 120" fill="none" xmlns="http://www.w3.org/2000/svg">
<path d="M60.5 120C93.6371 120 120.5 93.1371 120.5 60C120.5 26.8629 93.6371 0 60.5 0C27.3629 0 0.5 26.8629 0.5 60C0.5 93.1371 27.3629 120 60.5 120Z" fill="url(#paint0_linear_1110_15905)" style=""/>
<path d="M96.5 120H24.5V42.4001C27.8936 42.3963 30.9004 40.7997 33.3 38.4001C35.6996 36.0005 37.2962 32.9937 37.3 29.6001H83.7C83.6964 31.2812 83.8558 32.8473 84.5 34.4001C85.1442 35.9529 85.7075 37.2152 86.9 38.4001C88.0849 39.593 89.347 40.1558 90.9 40.8001C92.453 41.4444 94.8187 42.4038 96.5 42.4001V120Z" fill="white" style="fill:white;fill-opacity:1;"/>
<path d="M60.5 81.6002C71.1039 81.6002 79.7001 73.0041 79.7001 62.4002C79.7001 51.7963 71.1039 43.2002 60.5 43.2002C49.8962 43.2002 41.3 51.7963 41.3 62.4002C41.3 73.0041 49.8962 81.6002 60.5 81.6002Z" fill="#502EFF" style="fill:#502EFF;fill:color(display-p3 0.3137 0.1804 1.0000);fill-opacity:1;"/>
<path d="M68.0883 72.0904L61.3 65.3021L54.5118 72.0904L52.2491 69.8276L59.0373 63.0394L52.2491 56.2512L54.5118 53.9884L61.3 60.7766L68.0883 53.9884L70.351 56.2512L63.5628 63.0394L70.351 69.8276L68.0883 72.0904Z" fill="white" style="fill:white;fill-opacity:1;"/>
<path d="M70.9 86.3999H50.1C48.7745 86.3999 47.7 87.4744 47.7 88.7999C47.7 90.1254 48.7745 91.1999 50.1 91.1999H70.9C72.2254 91.1999 73.3 90.1254 73.3 88.7999C73.3 87.4744 72.2254 86.3999 70.9 86.3999Z" fill="#DFEAFB" style="fill:#DFEAFB;fill:color(display-p3 0.8745 0.9176 0.9843);fill-opacity:1;"/>
<path d="M78.1 96H42.9C41.5745 96 40.5 97.0745 40.5 98.4C40.5 99.7255 41.5745 100.8 42.9 100.8H78.1C79.4255 100.8 80.5 99.7255 80.5 98.4C80.5 97.0745 79.4255 96 78.1 96Z" fill="#DFEAFB" style="fill:#DFEAFB;fill:color(display-p3 0.8745 0.9176 0.9843);fill-opacity:1;"/>
<defs>
<linearGradient id="paint0_linear_1110_15905" x1="60.5" y1="0" x2="60.5" y2="120" gradientUnits="userSpaceOnUse">
<stop stop-color="#DFDCFB" style="stop-color:#DFDCFB;stop-color:color(display-p3 0.8745 0.8627 0.9843);stop-opacity:1;"/>
<stop offset="1" stop-color="#6E7FFF" style="stop-color:#6E7FFF;stop-color:color(display-p3 0.4314 0.4980 1.0000);stop-opacity:1;"/>
</linearGradient>
</defs>
</svg>
