<svg width="24" height="24" viewBox="0 0 24 24" fill="none" xmlns="http://www.w3.org/2000/svg">
<path d="M12 20.4668C10.8324 20.4668 9.73665 20.2454 8.71289 19.8027C7.68913 19.3656 6.78988 18.7596 6.01514 17.9849C5.2404 17.2046 4.63167 16.3053 4.18896 15.2871C3.75179 14.2633 3.5332 13.1676 3.5332 12C3.5332 10.8324 3.75179 9.73665 4.18896 8.71289C4.63167 7.68913 5.2404 6.78988 6.01514 6.01514C6.78988 5.2404 7.68913 4.63444 8.71289 4.19727C9.73665 3.75456 10.8324 3.5332 12 3.5332C13.1676 3.5332 14.2633 3.75456 15.2871 4.19727C16.3109 4.63444 17.2101 5.2404 17.9849 6.01514C18.7596 6.78988 19.3656 7.68913 19.8027 8.71289C20.2454 9.73665 20.4668 10.8324 20.4668 12C20.4668 13.1676 20.2454 14.2633 19.8027 15.2871C19.3656 16.3053 18.7596 17.2046 17.9849 17.9849C17.2101 18.7596 16.3109 19.3656 15.2871 19.8027C14.2633 20.2454 13.1676 20.4668 12 20.4668ZM9.21094 15.4863C9.41016 15.4863 9.57894 15.4199 9.71729 15.2871L12.0083 12.9795L14.3076 15.2871C14.4349 15.4199 14.5981 15.4863 14.7974 15.4863C14.991 15.4863 15.1543 15.4199 15.2871 15.2871C15.4199 15.1488 15.4863 14.9855 15.4863 14.7974C15.4863 14.5926 15.4199 14.4294 15.2871 14.3076L12.9795 12.0083L15.2954 9.70068C15.4282 9.56234 15.4946 9.39909 15.4946 9.21094C15.4946 9.02279 15.4282 8.8623 15.2954 8.72949C15.1626 8.59668 15.0021 8.53027 14.814 8.53027C14.6313 8.53027 14.4736 8.59668 14.3408 8.72949L12.0083 11.0454L9.69238 8.73779C9.55404 8.61051 9.39355 8.54688 9.21094 8.54688C9.02279 8.54688 8.8623 8.61328 8.72949 8.74609C8.59668 8.87337 8.53027 9.03385 8.53027 9.22754C8.53027 9.41016 8.59668 9.57064 8.72949 9.70898L11.0371 12.0083L8.72949 14.3159C8.59668 14.4487 8.53027 14.6092 8.53027 14.7974C8.53027 14.9855 8.59668 15.1488 8.72949 15.2871C8.8623 15.4199 9.02279 15.4863 9.21094 15.4863Z" fill="#3C3C43" fill-opacity="0.6" style="fill:#3C3C43;fill:color(display-p3 0.2353 0.2353 0.2627);fill-opacity:0.6;"/>
</svg>
