<svg width="36" height="20" viewBox="0 0 36 20" fill="none" xmlns="http://www.w3.org/2000/svg">
<g clip-path="url(#clip0_1051_14479)">
<path fill-rule="evenodd" clip-rule="evenodd" d="M0.949198 4.95592L1.62303 13.3641C1.71385 14.2324 1.91599 14.7905 2.16209 15.0977C2.26424 15.2138 2.39654 15.2988 2.54407 15.3432C2.6916 15.3875 2.84849 15.3894 2.99705 15.3487H3.07615H6.38084C6.5617 15.3676 6.74439 15.3419 6.91328 15.2741C7.08216 15.2062 7.23221 15.098 7.35056 14.9589L7.36521 14.9412C7.60853 14.5327 7.72865 14.0617 7.71092 13.5856V4.30323C7.69652 4.2625 7.68957 4.21947 7.69041 4.17624C7.68897 4.16447 7.68897 4.15257 7.69041 4.1408C7.67725 4.01694 7.63771 3.89741 7.57451 3.79037C7.51131 3.68333 7.42592 3.59131 7.3242 3.5206C6.97429 3.33767 6.58033 3.25784 6.18748 3.29024H2.05076C1.87987 3.28082 1.70886 3.3066 1.54818 3.366C1.3875 3.42541 1.24051 3.5172 1.11619 3.63578C0.919901 3.87204 0.849588 4.2796 0.946268 4.91457V4.95592H0.949198ZM27.2754 4.59856C27.2749 4.45736 27.2837 4.31627 27.3017 4.17624L25.7812 3.14552C25.5615 2.99786 25.3213 2.82656 25.0781 2.65527C24.1992 2.04097 23.3203 1.40896 22.3447 1.15202C21.7758 1.00422 21.1918 0.922959 20.6045 0.909846C20.0658 0.895875 19.5277 0.955483 19.0049 1.08705C18.7001 1.16494 18.4052 1.27791 18.126 1.42373C17.8802 1.55437 17.6526 1.71724 17.4492 1.90807L16.4062 3.13962C16.3748 3.19959 16.3308 3.25199 16.2773 3.29319L13.4443 6.69248C13.4809 6.89212 13.5654 7.07971 13.6904 7.23885C13.8276 7.40818 14.0079 7.53679 14.2119 7.61097C14.4482 7.69637 14.7004 7.72764 14.9502 7.70252C15.4255 7.65594 15.8762 7.4678 16.2451 7.16206L17.0332 6.49756C17.2324 6.33217 17.3994 6.1786 17.5635 6.02798C17.9023 5.69605 18.2733 5.39923 18.6709 5.14198C19.5498 4.61038 20.4287 4.59266 21.3076 6.06342L25.7607 14.1762H27.2754V4.59856ZM27.6357 3.30205C27.7043 3.20531 27.7828 3.11621 27.8701 3.03625C28.3397 2.65883 28.9319 2.47139 29.5312 2.51055H33.3984C34.2099 2.51055 34.8633 2.65527 35.3262 3.00967C35.833 3.40542 36.0732 4.00494 35.9707 4.86732L35.1152 13.7893C35.1012 14.46 34.8754 15.1086 34.4707 15.6411C34.2634 15.8754 34.004 16.0569 33.7138 16.1709C33.4235 16.2848 33.1107 16.328 32.8008 16.2967H29.3232C28.8736 16.3323 28.4273 16.1939 28.0752 15.9098C27.8064 15.6841 27.5912 15.4005 27.4453 15.08H26.2412C26.3933 15.5104 26.4015 15.9792 26.2646 16.4149C26.1293 16.8236 25.8776 17.1831 25.541 17.4485C25.2115 17.7108 24.8214 17.8846 24.4072 17.9536C23.9954 18.0234 23.5724 17.9764 23.1855 17.8177C22.7987 18.2524 22.3013 18.5721 21.7471 18.7421C21.2416 18.881 20.7056 18.8562 20.2148 18.6712C19.7946 19.1791 19.2235 19.5374 18.5859 19.6931C17.9249 19.8169 17.2417 19.7129 16.6465 19.3977C16.4419 19.5609 16.2162 19.695 15.9756 19.7964C15.6462 19.9338 15.2918 19.9992 14.9355 19.9884C14.231 20.0021 13.5468 19.7505 13.0166 19.2826C12.5778 18.8445 12.2135 18.3367 11.9385 17.7793L10.0166 14.4125H8.5283C8.46101 14.7984 8.30995 15.1644 8.08592 15.4846L8.06541 15.5141C7.86175 15.7674 7.59949 15.9664 7.30167 16.0936C7.00385 16.2208 6.67959 16.2723 6.3574 16.2436H3.10838C2.81219 16.3096 2.5037 16.2925 2.2165 16.1941C1.92929 16.0957 1.67436 15.9197 1.47947 15.6854C1.09861 15.2394 0.83494 14.5041 0.723612 13.4497V13.4113L0.0497838 5.03566C-0.0849819 4.13194 0.0497838 3.49106 0.424784 3.05397C0.626744 2.83437 0.872846 2.66071 1.14666 2.5446C1.42048 2.42848 1.71572 2.37257 2.01267 2.38061H6.18162C6.75017 2.34301 7.31726 2.47335 7.81346 2.75568C8.15896 2.97737 8.41216 3.31874 8.52537 3.71552H11.3232C11.9632 3.2532 12.667 2.88802 13.4121 2.63164C14.1921 2.39533 15.0134 2.33087 15.8203 2.44263L16.7783 1.29378L16.8135 1.25539C17.0765 1.00372 17.3722 0.789132 17.6924 0.617466C18.0346 0.440146 18.3951 0.301482 18.7676 0.203999C19.3703 0.0551612 19.9899 -0.0133497 20.6103 0.000218273C21.2679 0.0151373 21.9217 0.106306 22.5586 0.271925C23.6748 0.567259 24.6387 1.24948 25.5762 1.91103C25.8017 2.07051 26.0244 2.22703 26.2646 2.38947L27.6269 3.30205H27.6357ZM4.6201 11.4474C4.77447 11.4468 4.92555 11.4924 5.05415 11.5785C5.18275 11.6646 5.28309 11.7873 5.34244 11.9309C5.40178 12.0746 5.41746 12.2328 5.38749 12.3855C5.35751 12.5381 5.28323 12.6784 5.17407 12.7884C5.0649 12.8985 4.92578 12.9734 4.77434 13.0036C4.6229 13.0338 4.46596 13.018 4.32345 12.9582C4.18093 12.8983 4.05925 12.7972 3.97384 12.6675C3.88844 12.5379 3.84315 12.3856 3.84373 12.23C3.8445 12.0227 3.92654 11.824 4.07197 11.6774C4.2174 11.5308 4.41443 11.4481 4.6201 11.4474ZM25.3008 15.0386C25.2389 15.0114 25.1838 14.9709 25.1392 14.9199C25.0947 14.8688 25.0618 14.8085 25.0429 14.7433L20.5254 6.52414C20.0244 5.67949 19.5732 5.65586 19.1338 5.91871C18.7866 6.15013 18.4619 6.41415 18.164 6.70725C17.9648 6.89035 17.7656 7.07346 17.6015 7.20931L16.8017 7.87382C16.2922 8.29175 15.6715 8.54861 15.0176 8.61215C14.6344 8.64667 14.2485 8.59627 13.8867 8.46448C13.5305 8.33162 13.2159 8.10527 12.9756 7.80884C12.7023 7.46094 12.5399 7.03776 12.5097 6.59502C12.5051 6.52897 12.5145 6.46268 12.5372 6.40056C12.5599 6.33844 12.5955 6.2819 12.6416 6.23471L15.082 3.30796C14.6047 3.29631 14.1288 3.36315 13.6728 3.50583C12.9788 3.75044 12.3244 4.09674 11.7304 4.53359C11.6477 4.6007 11.5436 4.63532 11.4375 4.63105H8.61619V13.4911H10.2773C10.3608 13.4909 10.4427 13.514 10.5141 13.5578C10.5854 13.6016 10.6434 13.6643 10.6816 13.7391L12.7324 17.3274C12.9605 17.7964 13.2568 18.2284 13.6113 18.6092C13.9853 18.9284 14.4633 19.0967 14.9531 19.0817C15.1839 19.0884 15.4134 19.0461 15.6269 18.9577C15.7639 18.901 15.8929 18.8266 16.0107 18.7362L14.6894 16.2436C14.642 16.1384 14.6361 16.019 14.6729 15.9096C14.7096 15.8001 14.7863 15.7089 14.8873 15.6544C14.9884 15.5999 15.1062 15.5862 15.2169 15.6161C15.3276 15.646 15.4229 15.7172 15.4834 15.8153L16.9306 18.5413C17.3419 18.8063 17.8366 18.9066 18.3176 18.8225C18.7985 18.7383 19.2307 18.4757 19.5293 18.0865L17.4463 14.7846C17.381 14.6836 17.3583 14.5605 17.383 14.4426C17.4077 14.3246 17.4779 14.2214 17.5781 14.1556C17.6795 14.0919 17.8016 14.0708 17.9182 14.0968C18.0348 14.1227 18.1367 14.1936 18.2021 14.2944L20.3965 17.7704C20.7447 17.926 21.1347 17.9592 21.5039 17.865C21.8933 17.7411 22.2418 17.5124 22.5117 17.2034L20.5283 13.429C20.4712 13.3221 20.4586 13.1967 20.4932 13.0804C20.5278 12.9641 20.6068 12.8664 20.7129 12.8088C20.8189 12.7513 20.9433 12.7385 21.0587 12.7734C21.1741 12.8083 21.271 12.888 21.3281 12.9949L23.3789 16.8992C23.6455 17.0512 23.9567 17.1035 24.2578 17.0469C24.5203 17.0046 24.7675 16.8948 24.9756 16.7279C25.1718 16.5775 25.3196 16.372 25.4004 16.1373C25.4895 15.8439 25.4654 15.5275 25.333 15.2513C25.3043 15.1853 25.2922 15.1133 25.2978 15.0416L25.3008 15.0386ZM31.2539 11.4474C31.4079 11.4485 31.5581 11.4957 31.6855 11.5828C31.813 11.67 31.9119 11.7932 31.9699 11.9371C32.0279 12.0809 32.0424 12.2388 32.0114 12.3909C31.9804 12.543 31.9055 12.6824 31.796 12.7915C31.6864 12.9007 31.5473 12.9747 31.3961 13.0042C31.2449 13.0337 31.0884 13.0174 30.9464 12.9573C30.8044 12.8972 30.6833 12.7961 30.5982 12.6666C30.5132 12.5372 30.4682 12.3852 30.4687 12.23C30.4695 12.0227 30.5515 11.824 30.697 11.6774C30.8424 11.5308 31.0394 11.4481 31.2451 11.4474H31.2539Z" fill="#6E7FFF" style="fill:#6E7FFF;fill:color(display-p3 0.4314 0.4980 1.0000);fill-opacity:1;"/>
</g>
<defs>
<clipPath id="clip0_1051_14479">
<rect width="36" height="20" fill="white" style="fill:white;fill-opacity:1;"/>
</clipPath>
</defs>
</svg>
