<svg width="16" height="16" viewBox="0 0 16 16" fill="none" xmlns="http://www.w3.org/2000/svg">
<path d="M7.07484 1.22322C7.49452 0.525854 8.50555 0.525853 8.92523 1.22322L10.6076 4.01875C10.7584 4.26928 11.0043 4.44796 11.2892 4.51393L14.4677 5.2501C15.2607 5.43374 15.5731 6.39529 15.0396 7.00992L12.9007 9.47382C12.7091 9.69463 12.6151 9.98374 12.6404 10.275L12.9225 13.5255C12.9929 14.3364 12.1749 14.9307 11.4255 14.6132L8.42126 13.3404C8.15202 13.2264 7.84804 13.2264 7.57881 13.3404L4.57457 14.6132C3.82513 14.9307 3.00719 14.3364 3.07757 13.5255L3.35967 10.275C3.38495 9.98374 3.29101 9.69464 3.09934 9.47383L0.960512 7.00993C0.426966 6.39529 0.739389 5.43374 1.53231 5.2501L4.7109 4.51393C4.99576 4.44796 5.24169 4.26928 5.39246 4.01875L7.07484 1.22322Z" fill="#4E5051" style="fill:#4E5051;fill:color(display-p3 0.3059 0.3137 0.3176);fill-opacity:1;"/>
</svg>
