<svg width="24" height="24" viewBox="0 0 24 24" fill="none" xmlns="http://www.w3.org/2000/svg">
<rect x="7.55554" y="2" width="8.88889" height="2.22222" rx="1.11111" fill="#FF9AA7" style="fill:#FF9AA7;fill:color(display-p3 1.0000 0.6039 0.6549);fill-opacity:1;"/>
<path d="M20.8887 5.3335C21.5023 5.3335 22 5.83117 22 6.44482C21.9999 7.05837 21.5022 7.55615 20.8887 7.55615H20.8066C20.2261 7.55618 19.7438 8.00272 19.6992 8.58154L18.7451 20.9741C18.7006 21.553 18.2183 22.0005 17.6377 22.0005H6.3623C5.78171 22.0005 5.29941 21.553 5.25488 20.9741L4.30078 8.58154C4.25621 8.00272 3.7739 7.55618 3.19336 7.55615H3.11133C2.49775 7.55615 2.00012 7.05837 2 6.44482C2 5.83117 2.49768 5.3335 3.11133 5.3335H20.8887ZM9.22266 9.77783C8.60901 9.77783 8.11133 10.2755 8.11133 10.8892V17.5552C8.11133 18.1688 8.60901 18.6665 9.22266 18.6665C9.83611 18.6663 10.333 18.1687 10.333 17.5552V10.8892C10.333 10.2757 9.83611 9.77807 9.22266 9.77783ZM14.7773 9.77783C14.1639 9.77807 13.667 10.2757 13.667 10.8892V17.5552C13.667 18.1687 14.1639 18.6663 14.7773 18.6665C15.391 18.6665 15.8887 18.1688 15.8887 17.5552V10.8892C15.8887 10.2755 15.391 9.77783 14.7773 9.77783Z" fill="#FF9AA7" style="fill:#FF9AA7;fill:color(display-p3 1.0000 0.6039 0.6549);fill-opacity:1;"/>
</svg>
