<svg width="31" height="31" viewBox="0 0 31 31" fill="none" xmlns="http://www.w3.org/2000/svg">
<path d="M18.3692 6.7253L24.2742 12.6315C24.6202 12.9775 24.8571 13.4173 24.9556 13.8966C25.054 14.3759 25.0096 14.8735 24.828 15.3278L21.8717 22.719C21.7059 23.1328 21.4324 23.4947 21.0796 23.7672C20.7269 24.0398 20.3077 24.213 19.8655 24.269L13.5167 25.0628C13.3534 25.082 13.1825 25.1053 13.0042 25.1328L12.4492 25.2228L12.1592 25.2753L11.2555 25.4503L10.6367 25.5815L9.70546 25.7915L8.51171 26.0765L6.57171 26.5715L5.76421 26.789C5.56043 26.8451 5.34585 26.8491 5.14013 26.8006C4.93441 26.7522 4.74414 26.6529 4.58677 26.5118C4.4294 26.3707 4.30997 26.1924 4.23942 25.9932C4.16886 25.794 4.14945 25.5802 4.18296 25.3715L4.22546 25.189L4.59421 23.799L4.92421 22.489L5.20921 21.2953L5.41796 20.364L5.54921 19.744L5.72546 18.8415L5.82546 18.2703L5.90546 17.7353L6.73046 11.1353C6.78661 10.6929 6.96005 10.2736 7.23281 9.92087C7.50557 9.56811 7.86772 9.29472 8.28171 9.12905L15.673 6.1728C16.1273 5.99113 16.6249 5.94676 17.1042 6.04519C17.5834 6.14363 18.0233 6.37928 18.3692 6.7253ZM13.7317 13.7315C13.4159 14.0476 13.1906 14.4424 13.0791 14.8751C12.9676 15.3077 12.9742 15.7623 13.098 16.1915C13.0068 16.2449 12.9228 16.3096 12.848 16.384L7.77546 21.4565C7.74222 21.4903 7.71925 21.5328 7.70921 21.579L7.59796 22.0603L7.37546 22.989L7.26796 23.4278C7.25696 23.47 7.25718 23.5143 7.26861 23.5564C7.28003 23.5985 7.30226 23.6368 7.33309 23.6677C7.36393 23.6985 7.40228 23.7207 7.44436 23.7322C7.48644 23.7436 7.53077 23.7438 7.57296 23.7328L8.46921 23.514L9.42296 23.2915C9.46894 23.2809 9.51098 23.2575 9.54421 23.224L14.6167 18.1515C14.6911 18.0771 14.7558 17.9935 14.8092 17.9028C15.2328 18.0246 15.681 18.0322 16.1085 17.9249C16.5359 17.8176 16.9274 17.5993 17.2433 17.2919C17.5592 16.9846 17.7882 16.5992 17.9071 16.1749C18.0261 15.7505 18.0308 15.3023 17.9207 14.8755C17.8105 14.4488 17.5896 14.0587 17.2802 13.7449C16.9708 13.4311 16.5839 13.2046 16.1587 13.0885C15.7336 12.9723 15.2853 12.9706 14.8593 13.0836C14.4333 13.1965 14.0447 13.4201 13.733 13.7315H13.7317ZM19.5542 4.37655C19.7693 4.16114 20.0556 4.03162 20.3594 4.01229C20.6632 3.99296 20.9636 4.08514 21.2042 4.27155L21.3217 4.37655L26.6255 9.67905C26.852 9.90347 26.9843 10.206 26.9951 10.5247C27.0059 10.8435 26.8945 11.1543 26.6836 11.3935C26.4728 11.6328 26.1785 11.7824 25.8609 11.8118C25.5434 11.8412 25.2266 11.7481 24.9755 11.5515L24.8567 11.4465L19.5542 6.14405C19.3199 5.90964 19.1882 5.59175 19.1882 5.2603C19.1882 4.92884 19.3199 4.61096 19.5542 4.37655Z" fill="white" fill-opacity="0.4" style="fill:white;fill-opacity:0.4;"/>
</svg>
