<svg width="68" height="68" viewBox="0 0 68 68" fill="none" xmlns="http://www.w3.org/2000/svg">
<g filter="url(#filter0_dd_1554_5918)">
<rect width="42" height="42" rx="21" transform="matrix(-1 0 0 1 55 7)" fill="url(#paint0_linear_1554_5918)" style=""/>
<path d="M29.8135 19.9124C27.155 19.9126 25 22.0683 25 24.7268V29.7502C25.0002 32.4086 27.1552 34.5635 29.8135 34.5637H37.5986C37.8363 34.5637 38.0674 34.6448 38.2529 34.7932L40.6201 36.6868C41.5793 37.4538 42.9997 36.7713 43 35.5432V24.7268C43 22.0683 40.845 19.9126 38.1865 19.9124H29.8135ZM38.1445 26.2336C38.7224 26.2337 39.1904 26.7026 39.1904 27.2805C39.1902 27.8583 38.7223 28.3263 38.1445 28.3264C37.5667 28.3264 37.0979 27.8583 37.0977 27.2805C37.0977 26.7025 37.5666 26.2336 38.1445 26.2336ZM33.958 26.2336C34.536 26.2336 35.0049 26.7025 35.0049 27.2805C35.0046 27.8583 34.5358 28.3264 33.958 28.3264C33.3803 28.3263 32.9124 27.8582 32.9121 27.2805C32.9121 26.7026 33.3801 26.2337 33.958 26.2336ZM29.7725 26.2336C30.3503 26.2338 30.8184 26.7026 30.8184 27.2805C30.8181 27.8582 30.3502 28.3263 29.7725 28.3264C29.1946 28.3264 28.7258 27.8583 28.7256 27.2805C28.7256 26.7025 29.1945 26.2336 29.7725 26.2336Z" fill="white" style="fill:white;fill-opacity:1;"/>
</g>
<defs>
<filter id="filter0_dd_1554_5918" x="0" y="0" width="68" height="68" filterUnits="userSpaceOnUse" color-interpolation-filters="sRGB">
<feFlood flood-opacity="0" result="BackgroundImageFix"/>
<feColorMatrix in="SourceAlpha" type="matrix" values="0 0 0 0 0 0 0 0 0 0 0 0 0 0 0 0 0 0 127 0" result="hardAlpha"/>
<feOffset dy="6"/>
<feGaussianBlur stdDeviation="6.5"/>
<feColorMatrix type="matrix" values="0 0 0 0 0 0 0 0 0 0 0 0 0 0 0 0 0 0 0.12 0"/>
<feBlend mode="normal" in2="BackgroundImageFix" result="effect1_dropShadow_1554_5918"/>
<feColorMatrix in="SourceAlpha" type="matrix" values="0 0 0 0 0 0 0 0 0 0 0 0 0 0 0 0 0 0 127 0" result="hardAlpha"/>
<feOffset/>
<feGaussianBlur stdDeviation="2"/>
<feColorMatrix type="matrix" values="0 0 0 0 0 0 0 0 0 0 0 0 0 0 0 0 0 0 0.12 0"/>
<feBlend mode="normal" in2="effect1_dropShadow_1554_5918" result="effect2_dropShadow_1554_5918"/>
<feBlend mode="normal" in="SourceGraphic" in2="effect2_dropShadow_1554_5918" result="shape"/>
</filter>
<linearGradient id="paint0_linear_1554_5918" x1="21" y1="0" x2="21" y2="42" gradientUnits="userSpaceOnUse">
<stop stop-color="#6E7FFF" style="stop-color:#6E7FFF;stop-color:color(display-p3 0.4314 0.4980 1.0000);stop-opacity:1;"/>
<stop offset="1" stop-color="#8B5CF6" style="stop-color:#8B5CF6;stop-color:color(display-p3 0.5451 0.3608 0.9647);stop-opacity:1;"/>
</linearGradient>
</defs>
</svg>
