<svg width="36" height="31" viewBox="0 0 36 31" fill="none" xmlns="http://www.w3.org/2000/svg">
<g clip-path="url(#clip0_1051_14463)">
<path fill-rule="evenodd" clip-rule="evenodd" d="M12.7559 23.0849C14.4697 28.0903 21.6328 28.2734 23.2412 23.0849C25.1367 24.7766 30.7441 25.1167 32.833 26.2707C33.4922 26.6369 34.0898 27.102 34.5674 27.7298C35.0332 28.3402 35.7246 29.6977 35.9971 30.9999H0C0.272461 29.6977 0.963867 28.3402 1.42969 27.7298C1.91016 27.102 2.50488 26.6369 3.16406 26.2707C5.25293 25.1167 10.8604 24.7766 12.7559 23.0849ZM11.4434 12.7138C11.083 12.7283 10.8135 12.801 10.626 12.926C10.5205 12.9957 10.4414 13.0859 10.3916 13.1934C10.3359 13.3126 10.3096 13.4579 10.3154 13.6236C10.3301 14.1119 10.5879 14.7514 11.0889 15.4897L11.0947 15.5013L12.7148 18.0592C13.3652 19.0853 14.0479 20.1317 14.8945 20.8991C15.709 21.6374 16.6963 22.1373 18.0029 22.1402C19.418 22.1431 20.4521 21.6228 21.293 20.8438C22.166 20.0329 22.8574 18.9196 23.5342 17.8093L25.3594 14.8241C25.6992 14.0538 25.8252 13.5364 25.7461 13.2341C25.6992 13.0539 25.5 12.9667 25.1572 12.9492C25.084 12.9463 25.0107 12.9434 24.9346 12.9463C24.8525 12.9492 24.7676 12.9551 24.6797 12.9609C24.6299 12.9638 24.583 12.9609 24.5391 12.9521C24.3779 12.9609 24.208 12.9492 24.0381 12.926L24.665 10.1792C20.0244 10.9058 16.5527 7.48464 11.6455 9.49608L12 12.7341C11.8037 12.7458 11.6162 12.74 11.4434 12.7138ZM25.7842 12.1354C26.2324 12.272 26.5225 12.5539 26.6396 13.0132C26.7715 13.519 26.6279 14.234 26.1943 15.2107C26.1855 15.2281 26.1768 15.2455 26.168 15.263L24.3193 18.283C23.6074 19.4457 22.8838 20.6142 21.9199 21.5095C20.9209 22.4367 19.6904 23.0559 18.0059 23.05C16.4326 23.0471 15.249 22.4513 14.2793 21.5705C13.3418 20.7189 12.624 19.6201 11.9414 18.5446L10.3184 15.9867C9.72656 15.1089 9.41602 14.3067 9.39844 13.6498C9.38965 13.3387 9.44238 13.0597 9.55664 12.8126C9.67676 12.5539 9.86426 12.3388 10.1133 12.1702C10.2305 12.0918 10.3623 12.0249 10.5059 11.9726C10.4004 10.5861 10.3623 8.83626 10.4297 7.37418C10.4648 7.02829 10.5322 6.67948 10.6289 6.33358C11.042 4.8657 12.082 3.68267 13.3682 2.86879C14.0771 2.42116 14.8535 2.08107 15.665 1.85435C16.1777 1.70902 15.2256 0.0754488 15.7588 0.0231281C18.334 -0.238475 22.4971 2.0927 24.2959 4.02275C25.1953 4.99069 25.7607 6.26964 25.8838 7.96424L25.7842 12.1354ZM18.8145 17.2047H16.8779V17.0128C16.8779 16.6844 16.916 16.4198 16.9922 16.2164C17.0654 16.0129 17.1768 15.824 17.3232 15.6554C17.4697 15.4868 17.8037 15.1903 18.3193 14.7659C18.5947 14.545 18.7295 14.3386 18.7295 14.1555C18.7295 13.9695 18.6738 13.8242 18.5625 13.7224C18.4541 13.6178 18.2842 13.5684 18.0615 13.5684C17.8184 13.5684 17.6191 13.6469 17.4609 13.8067C17.3027 13.9637 17.2031 14.2398 17.1562 14.6322L15.1875 14.3881C15.2549 13.6701 15.5186 13.0917 15.9785 12.6528C16.4385 12.2138 17.1445 11.9958 18.0938 11.9958C18.832 11.9958 19.4297 12.1499 19.8838 12.4551C20.502 12.8679 20.8096 13.4201 20.8096 14.1119C20.8096 14.3968 20.7305 14.6729 20.5693 14.9403C20.4111 15.2048 20.0859 15.5304 19.5938 15.9141C19.251 16.1815 19.0342 16.3995 18.9463 16.5623C18.8584 16.728 18.8145 16.9401 18.8145 17.2047ZM16.8135 17.7104H18.8848V18.9603H16.8135V17.7104Z" fill="#6E7FFF" style="fill:#6E7FFF;fill:color(display-p3 0.4314 0.4980 1.0000);fill-opacity:1;"/>
</g>
<defs>
<clipPath id="clip0_1051_14463">
<rect width="36" height="31" fill="white" style="fill:white;fill-opacity:1;"/>
</clipPath>
</defs>
</svg>
