<svg width="20" height="21" viewBox="0 0 20 21" fill="none" xmlns="http://www.w3.org/2000/svg">
<path d="M10 20.5C11.3135 20.5016 12.6143 20.2437 13.8278 19.741C15.0412 19.2384 16.1434 18.5009 17.071 17.571C18.0009 16.6434 18.7384 15.5412 19.241 14.3278C19.7437 13.1143 20.0016 11.8135 20 10.5C20.0016 9.18655 19.7437 7.88572 19.241 6.67225C18.7384 5.45878 18.0009 4.35659 17.071 3.42901C16.1434 2.49909 15.0412 1.76162 13.8278 1.25896C12.6143 0.756313 11.3135 0.498388 10 0.500008C8.68655 0.498388 7.38572 0.756313 6.17225 1.25896C4.95878 1.76162 3.85659 2.49909 2.92901 3.42901C1.99909 4.35659 1.26162 5.45878 0.758965 6.67225C0.256313 7.88572 -0.00161208 9.18655 7.58096e-06 10.5C-0.00161208 11.8135 0.256313 13.1143 0.758965 14.3278C1.26162 15.5412 1.99909 16.6434 2.92901 17.571C3.85659 18.5009 4.95878 19.2384 6.17225 19.741C7.38572 20.2437 8.68655 20.5016 10 20.5Z" fill="#6E7FFF" style="fill:#6E7FFF;fill:color(display-p3 0.4314 0.4980 1.0000);fill-opacity:1;"/>
<path d="M6.79999 10.5001L9.19998 12.9001L14 8.1001" stroke="black" style="stroke:black;stroke-opacity:1;" stroke-width="2" stroke-linecap="round" stroke-linejoin="round"/>
</svg>
