<svg width="17" height="16" viewBox="0 0 17 16" fill="none" xmlns="http://www.w3.org/2000/svg">
<path d="M12.0834 1.50492C13.2235 2.16319 14.1703 3.10998 14.8286 4.25013C15.4868 5.39028 15.8334 6.68362 15.8334 8.00016C15.8334 9.31669 15.4868 10.61 14.8285 11.7502C14.1703 12.8903 13.2235 13.8371 12.0833 14.4953C10.9431 15.1536 9.64979 15.5001 8.33326 15.5001C7.01672 15.5001 5.72339 15.1535 4.58325 14.4952C3.44311 13.8369 2.49634 12.8901 1.8381 11.75C1.17986 10.6098 0.833341 9.31645 0.833374 7.99992L0.837124 7.75692C0.879126 6.46166 1.25603 5.19939 1.9311 4.09316C2.60617 2.98694 3.55636 2.07451 4.68904 1.44483C5.82172 0.815154 7.09823 0.489717 8.39413 0.500248C9.69002 0.510778 10.9611 0.856918 12.0834 1.50492ZM8.33337 3.49992C8.13446 3.49992 7.9437 3.57894 7.80304 3.71959C7.66239 3.86024 7.58337 4.05101 7.58337 4.24992C6.98664 4.24992 6.41434 4.48697 5.99238 4.90893C5.57043 5.33089 5.33337 5.90318 5.33337 6.49992C5.33337 7.09666 5.57043 7.66895 5.99238 8.09091C6.41434 8.51287 6.98664 8.74992 7.58337 8.74992V10.2499C7.45899 10.2568 7.33481 10.2332 7.22162 10.1812C7.10842 10.1292 7.00965 10.0503 6.93387 9.95142L6.88287 9.87567C6.78026 9.71018 6.61731 9.59109 6.42848 9.54358C6.23964 9.49606 6.03974 9.52385 5.87102 9.62107C5.70231 9.71828 5.57802 9.8773 5.52443 10.0645C5.47084 10.2517 5.49216 10.4524 5.58387 10.6242C5.7753 10.9562 6.04836 11.2338 6.37715 11.4307C6.70595 11.6275 7.07958 11.7372 7.46262 11.7492H7.58337C7.58321 11.933 7.65057 12.1105 7.77266 12.2479C7.89475 12.3854 8.06306 12.4732 8.24562 12.4947L8.33337 12.4999C8.53229 12.4999 8.72305 12.4209 8.8637 12.2802C9.00436 12.1396 9.08337 11.9488 9.08337 11.7499L9.21537 11.7462C9.80008 11.7124 10.3486 11.4519 10.7443 11.0201C11.14 10.5884 11.3518 10.0193 11.3346 9.43389C11.3174 8.84846 11.0726 8.29281 10.6522 7.885C10.2319 7.47718 9.66905 7.24935 9.08337 7.24992V5.74992C9.35187 5.74092 9.58662 5.85492 9.73287 6.04842L9.78387 6.12417C9.88649 6.28966 10.0494 6.40875 10.2383 6.45626C10.4271 6.50378 10.627 6.47599 10.7957 6.37877C10.9644 6.28156 11.0887 6.12254 11.1423 5.93534C11.1959 5.74814 11.1746 5.54744 11.0829 5.37567C10.8915 5.04353 10.6185 4.76578 10.2897 4.56876C9.96092 4.37175 9.58724 4.262 9.20412 4.24992H9.08337C9.08337 4.05101 9.00436 3.86024 8.8637 3.71959C8.72305 3.57894 8.53229 3.49992 8.33337 3.49992ZM9.08337 8.74992C9.28229 8.74992 9.47305 8.82894 9.6137 8.96959C9.75436 9.11024 9.83337 9.30101 9.83337 9.49992C9.83337 9.69883 9.75436 9.8896 9.6137 10.0302C9.47305 10.1709 9.28229 10.2499 9.08337 10.2499V8.74992ZM7.58337 5.74992V7.24992C7.38446 7.24992 7.1937 7.1709 7.05304 7.03025C6.91239 6.8896 6.83337 6.69883 6.83337 6.49992C6.83337 6.30101 6.91239 6.11024 7.05304 5.96959C7.1937 5.82894 7.38446 5.74992 7.58337 5.74992Z" fill="#4E5051" style="fill:#4E5051;fill:color(display-p3 0.3059 0.3137 0.3176);fill-opacity:1;"/>
</svg>
