<svg width="20" height="19" viewBox="0 0 20 19" fill="none" xmlns="http://www.w3.org/2000/svg">
<path d="M9.99999 18.6666C11.204 18.6681 12.3964 18.4317 13.5088 17.9709C14.6211 17.5102 15.6315 16.8341 16.4817 15.9817C17.3342 15.1314 18.0102 14.1211 18.4709 13.0088C18.9317 11.8964 19.1681 10.704 19.1667 9.49998C19.1681 8.29598 18.9317 7.10355 18.4709 5.99121C18.0102 4.87886 17.3342 3.86852 16.4817 3.01823C15.6315 2.16581 14.6211 1.48979 13.5088 1.02903C12.3964 0.568267 11.204 0.331835 9.99999 0.33332C8.796 0.331835 7.60357 0.568267 6.49122 1.02903C5.37888 1.48979 4.36854 2.16581 3.51825 3.01823C2.66582 3.86852 1.98981 4.87886 1.52905 5.99121C1.06828 7.10355 0.831851 8.29598 0.833335 9.49998C0.831851 10.704 1.06828 11.8964 1.52905 13.0088C1.98981 14.1211 2.66582 15.1314 3.51825 15.9817C4.36854 16.8341 5.37888 17.5102 6.49122 17.9709C7.60357 18.4317 8.796 18.6681 9.99999 18.6666Z" fill="white" style="fill:white;fill-opacity:1;"/>
<path d="M7.06667 9.49998L9.26666 11.7L13.6667 7.29999" stroke="black" style="stroke:black;stroke-opacity:1;" stroke-width="2" stroke-linecap="round" stroke-linejoin="round"/>
</svg>
