<svg width="16" height="16" viewBox="0 0 16 16" fill="none" xmlns="http://www.w3.org/2000/svg">
<path d="M9.86639 1C10.6616 1 11.2907 0.999345 11.7966 1.04067C12.3087 1.08251 12.7421 1.17003 13.1378 1.3716L13.3727 1.50341C13.9069 1.83107 14.3423 2.3007 14.6284 2.86218L14.6985 3.01222C14.8509 3.3673 14.9227 3.75523 14.9593 4.20343C15.0007 4.70929 15 5.3384 15 6.13361V9.86639C15 10.6616 15.0007 11.2907 14.9593 11.7966C14.9227 12.2448 14.8509 12.6327 14.6985 12.9878L14.6284 13.1378C14.3423 13.6993 13.9069 14.1689 13.3727 14.4966L13.1378 14.6284C12.7421 14.83 12.3087 14.9175 11.7966 14.9593C11.2907 15.0007 10.6616 15 9.86639 15H6.13361C5.3384 15 4.70929 15.0007 4.20343 14.9593C3.75523 14.9227 3.3673 14.8509 3.01222 14.6985L2.86218 14.6284C2.3007 14.3423 1.83107 13.9069 1.50341 13.3727L1.3716 13.1378C1.17003 12.7421 1.08251 12.3087 1.04067 11.7966C0.999345 11.2907 1 10.6616 1 9.86639V6.13361C1 5.3384 0.999345 4.70929 1.04067 4.20343C1.08251 3.69132 1.17003 3.25785 1.3716 2.86218L1.50341 2.6273C1.83107 2.09308 2.30069 1.65769 2.86218 1.3716L3.01222 1.30148C3.3673 1.14909 3.75523 1.07729 4.20343 1.04067C4.70929 0.999345 5.3384 1 6.13361 1H9.86639ZM4.41026 10.1538C4.01375 10.1538 3.69231 10.4753 3.69231 10.8718C3.69231 11.2683 4.01375 11.5897 4.41026 11.5897H9.4359C9.83241 11.5897 10.1538 11.2683 10.1538 10.8718C10.1538 10.4753 9.83241 10.1538 9.4359 10.1538H4.41026ZM7.28205 7.28205C6.88554 7.28205 6.5641 7.60349 6.5641 8C6.5641 8.39651 6.88554 8.71795 7.28205 8.71795H12.3077C12.7042 8.71795 13.0256 8.39651 13.0256 8C13.0256 7.60349 12.7042 7.28205 12.3077 7.28205H7.28205ZM5.12821 4.41026C4.73169 4.41026 4.41026 4.73169 4.41026 5.12821C4.41026 5.52472 4.73169 5.84615 5.12821 5.84615H10.1538C10.5504 5.84615 10.8718 5.52472 10.8718 5.12821C10.8718 4.73169 10.5504 4.41026 10.1538 4.41026H5.12821Z" fill="#4E5051" style="fill:#4E5051;fill:color(display-p3 0.3059 0.3137 0.3176);fill-opacity:1;"/>
</svg>
