<svg width="22" height="22" viewBox="0 0 22 22" fill="none" xmlns="http://www.w3.org/2000/svg">
<path d="M11 1.83325C9.2178 1.83535 7.5092 2.54426 6.24899 3.80447C4.98878 5.06467 4.27988 6.77327 4.27778 8.55547C4.27614 10.0118 4.75182 11.4285 5.632 12.5888C5.632 12.5888 5.81533 12.8302 5.84527 12.865L9.91078 18.6237C10.442 19.3762 11.558 19.3762 12.0892 18.6238L16.1572 12.862C16.1841 12.8296 16.368 12.5888 16.368 12.5888L16.3686 12.587C17.2482 11.4271 17.7236 10.0111 17.7222 8.55547C17.7201 6.77327 17.0112 5.06467 15.751 3.80447C14.4908 2.54426 12.7822 1.83535 11 1.83325ZM11 10.9999C10.5165 10.9999 10.0439 10.8566 9.64194 10.588C9.23995 10.3194 8.92664 9.93759 8.74162 9.49092C8.55661 9.04426 8.5082 8.55276 8.60252 8.07859C8.69684 7.60441 8.92965 7.16885 9.27151 6.82699C9.61337 6.48513 10.0489 6.25232 10.5231 6.158C10.9973 6.06368 11.4888 6.11209 11.9354 6.2971C12.3821 6.48212 12.7639 6.79543 13.0325 7.19741C13.3011 7.5994 13.4444 8.07201 13.4444 8.55547C13.4436 9.20353 13.1858 9.82482 12.7276 10.2831C12.2693 10.7413 11.6481 10.9991 11 10.9999Z" fill="#6E7FFF" style="fill:#6E7FFF;fill:color(display-p3 0.4314 0.4980 1.0000);fill-opacity:1;"/>
</svg>
