<svg width="16" height="16" viewBox="0 0 16 16" fill="none" xmlns="http://www.w3.org/2000/svg">
<path d="M8 0.5C6.54184 0.50172 5.14389 1.08174 4.11282 2.11281C3.08174 3.14389 2.50172 4.54184 2.5 6C2.49866 7.19155 2.88786 8.3507 3.608 9.3C3.608 9.3 3.758 9.4975 3.7825 9.526L7.18309 14.3429C7.58151 14.9072 8.41851 14.9072 8.81694 14.3429L12.2195 9.5235C12.2415 9.497 12.392 9.3 12.392 9.3L12.3925 9.2985C13.1122 8.34954 13.5012 7.19098 13.5 6C13.4983 4.54184 12.9183 3.14389 11.8872 2.11281C10.8561 1.08174 9.45817 0.50172 8 0.5ZM8 8C7.60444 8 7.21776 7.8827 6.88886 7.66294C6.55996 7.44318 6.30362 7.13082 6.15224 6.76537C6.00087 6.39991 5.96126 5.99778 6.03843 5.60982C6.1156 5.22186 6.30608 4.86549 6.58579 4.58579C6.86549 4.30608 7.22186 4.1156 7.60982 4.03843C7.99778 3.96126 8.39992 4.00087 8.76537 4.15224C9.13082 4.30362 9.44318 4.55996 9.66294 4.88886C9.8827 5.21776 10 5.60444 10 6C9.99934 6.53023 9.78841 7.03855 9.41349 7.41348C9.03856 7.78841 8.53023 7.99934 8 8Z" fill="#4E5051" style="fill:#4E5051;fill:color(display-p3 0.3059 0.3137 0.3176);fill-opacity:1;"/>
</svg>
