<svg width="16" height="16" viewBox="0 0 16 16" fill="none" xmlns="http://www.w3.org/2000/svg">
<path d="M1 12.9C1 14.09 1.91 15 3.1 15H12.9C14.09 15 15 14.09 15 12.9V7.4C15 7.17909 14.8209 7 14.6 7H1.4C1.17909 7 1 7.17909 1 7.4V12.9ZM12.9 2.4H11.5V1.7C11.5 1.28 11.22 1 10.8 1C10.38 1 10.1 1.28 10.1 1.7V2.4H5.9V1.7C5.9 1.28 5.62 1 5.2 1C4.78 1 4.5 1.28 4.5 1.7V2.4H3.1C1.91 2.4 1 3.31 1 4.5V5.5C1 5.72091 1.17909 5.9 1.4 5.9H14.6C14.8209 5.9 15 5.72091 15 5.5V4.5C15 3.31 14.09 2.4 12.9 2.4Z" fill="#4E5051" style="fill:#4E5051;fill:color(display-p3 0.3059 0.3137 0.3176);fill-opacity:1;"/>
</svg>
