<svg width="335" height="55" viewBox="0 0 335 55" fill="none" xmlns="http://www.w3.org/2000/svg">
<rect width="335" height="55" rx="10" fill="#FEE500" style="fill:#FEE500;fill:color(display-p3 0.9961 0.8980 0.0000);fill-opacity:1;"/>
<path d="M115 18.5C120.5 18.5 125 22.08 125 26.5C125 30.92 120.5 34.5 115 34.5C113.792 34.5 112.631 34.3291 111.554 34.0242C111.5 34.009 111.443 34.0164 111.395 34.0453L106.915 36.7495C106.762 36.8418 106.574 36.7034 106.617 36.5303C107.046 34.8154 107.588 32.648 107.72 32.1199C107.739 32.0458 107.713 31.9689 107.655 31.9189C106.011 30.497 105 28.59 105 26.5C105 22.08 109.5 18.5 115 18.5Z" fill="black" style="fill:black;fill-opacity:1;"/>
<path d="M146.103 21.2383C146.103 26.0371 144.785 30.1504 138.932 33.0684L137.859 31.5918C140.61 30.2295 142.245 28.6475 143.168 26.7578L138.228 27.2324L137.982 25.5449L143.766 25.1758C143.968 24.4375 144.091 23.6553 144.152 22.8203H138.808V21.2383H146.103ZM150.287 19.6738V25.8965H152.642V27.4961H150.287V35.5293H148.336V19.6738H150.287ZM161.12 21.2383C161.12 26.0371 159.802 30.1504 153.948 33.0684L152.876 31.5918C155.627 30.2295 157.262 28.6475 158.184 26.7578L153.245 27.2324L152.999 25.5449L158.782 25.1758C158.984 24.4375 159.107 23.6553 159.169 22.8203H153.825V21.2383H161.12ZM165.304 19.6738V25.8965H167.659V27.4961H165.304V35.5293H163.352V19.6738H165.304ZM175.1 20.5703C178.51 20.5703 181.023 22.2754 181.023 24.8594C181.023 27.2412 178.976 28.832 176.066 29.1133V32.0312H182.394V33.6309H167.875V32.0312H174.133V29.1133C171.241 28.832 169.193 27.2412 169.211 24.8594C169.193 22.2754 171.707 20.5703 175.1 20.5703ZM175.1 22.1523C172.779 22.1348 171.109 23.1895 171.127 24.8594C171.109 26.582 172.779 27.6016 175.1 27.6016C177.455 27.6016 179.107 26.582 179.107 24.8594C179.107 23.1895 177.455 22.1348 175.1 22.1523ZM201.143 32.1016V33.7188H186.623V32.1016H192.881V29.5176H188.346V24.3145H197.486V22.3457H188.311V20.7637H199.42V25.8613H190.297V27.918H199.789V29.5176H194.814V32.1016H201.143ZM214.278 21.2207V23.0137C214.278 25.1406 214.278 27.3379 213.698 30.6777L211.712 30.502C212.327 27.373 212.327 25.0703 212.327 23.0137V22.8027H203.169V21.2207H214.278ZM216.124 31.7852V33.3848H201.64V31.7852H216.124ZM229.893 19.6914V31.1699H227.924V19.6914H229.893ZM230.332 33.666V35.248H219.381V30.0098H221.35V33.666H230.332ZM221.227 20.7285C223.635 20.7285 225.498 22.3984 225.498 24.7012C225.498 27.0566 223.635 28.6914 221.227 28.6914C218.801 28.6914 216.938 27.0566 216.938 24.7012C216.938 22.3984 218.801 20.7285 221.227 20.7285ZM221.227 22.4336C219.873 22.4336 218.836 23.3301 218.854 24.7012C218.836 26.1074 219.873 26.9863 221.227 26.9863C222.545 26.9863 223.582 26.1074 223.582 24.7012C223.582 23.3301 222.545 22.4336 221.227 22.4336Z" fill="black" style="fill:black;fill-opacity:1;"/>
</svg>
