<svg width="31" height="30" viewBox="0 0 31 30" fill="none" xmlns="http://www.w3.org/2000/svg">
<path d="M5.5 24.6285V12.623C5.5 12.2694 5.5819 11.9347 5.74571 11.6189C5.90952 11.303 6.13524 11.0429 6.42286 10.8385L14.1157 5.2059C14.5186 4.90848 14.9786 4.75977 15.4957 4.75977C16.0129 4.75977 16.4757 4.90848 16.8843 5.2059L24.5771 10.8371C24.8657 11.0415 25.0914 11.3021 25.2543 11.6189C25.4181 11.9347 25.5 12.2694 25.5 12.623V24.6285C25.5 24.9987 25.3576 25.3215 25.0729 25.5968C24.7881 25.8721 24.4543 26.0098 24.0714 26.0098H19.2371C18.9095 26.0098 18.6352 25.903 18.4143 25.6893C18.1933 25.4748 18.0829 25.2096 18.0829 24.8937V18.3067C18.0829 17.9909 17.9724 17.7262 17.7514 17.5125C17.5295 17.298 17.2552 17.1907 16.9286 17.1907H14.0714C13.7448 17.1907 13.471 17.298 13.25 17.5125C13.0281 17.7262 12.9171 17.9909 12.9171 18.3067V24.8951C12.9171 25.211 12.8067 25.4757 12.5857 25.6893C12.3648 25.903 12.091 26.0098 11.7643 26.0098H6.92857C6.54571 26.0098 6.2119 25.8721 5.92714 25.5968C5.64238 25.3215 5.5 24.9987 5.5 24.6285Z" fill="#717374" style="fill:#717374;fill:color(display-p3 0.4431 0.4510 0.4549);fill-opacity:1;"/>
</svg>
