<svg width="16" height="16" viewBox="0 0 16 16" fill="none" xmlns="http://www.w3.org/2000/svg">
<path d="M2.23397 8.8066L7.4626 13.7183C7.6427 13.8875 7.73276 13.9721 7.83894 13.993C7.88675 14.0023 7.93594 14.0023 7.98376 13.993C8.08993 13.9721 8.17999 13.8875 8.3601 13.7183L13.5887 8.80659C15.0598 7.42463 15.2385 5.15048 14.0012 3.55576L13.7686 3.2559C12.2884 1.34816 9.31738 1.6681 8.27734 3.84723C8.13043 4.15505 7.69227 4.15505 7.54535 3.84723C6.50531 1.6681 3.53428 1.34815 2.05413 3.2559L1.82148 3.55575C0.584201 5.15048 0.76285 7.42463 2.23397 8.8066Z" fill="#4E5051" stroke="#4E5051" style="fill:#4E5051;fill:color(display-p3 0.3059 0.3137 0.3176);fill-opacity:1;stroke:#4E5051;stroke:color(display-p3 0.3059 0.3137 0.3176);stroke-opacity:1;" stroke-width="1.50408"/>
</svg>
