<svg width="36" height="31" viewBox="0 0 36 31" fill="none" xmlns="http://www.w3.org/2000/svg">
<g clip-path="url(#clip0_1051_14462)">
<path fill-rule="evenodd" clip-rule="evenodd" d="M5.44922 8.57169C5.50488 8.58653 5.56055 8.59841 5.61914 8.60732L5.42871 7.09013C5.52539 6.71899 5.67188 6.42802 5.86817 6.21425C6.07324 5.99157 6.32813 5.85499 6.63281 5.79561C7.03711 5.76592 7.15723 6.0658 7.56152 6.32708C8.78906 7.12278 9.8291 7.39 11.3467 7.41078L11.1592 8.34901C11.124 8.39354 11.1064 8.44996 11.1094 8.51231C11.1094 8.52715 11.1123 8.542 11.1182 8.55387L11.0918 8.68154C11.1357 8.68748 11.1826 8.69045 11.2266 8.69045C11.2646 8.71123 11.3086 8.72014 11.3525 8.71717C11.6104 8.69342 11.7686 8.7142 11.8096 8.80031C11.8682 8.91907 11.8154 9.16253 11.6455 9.55742L10.8164 10.941C10.5088 11.4546 10.1953 11.9713 9.79981 12.3454C9.42188 12.7046 8.95313 12.9451 8.31445 12.9422C7.72559 12.9392 7.28027 12.7106 6.91113 12.3691C6.52734 12.0128 6.21973 11.5289 5.92383 11.0538L5.18555 9.8662L5.18262 9.86026C4.95703 9.52179 4.83984 9.22785 4.83398 9.0022C4.83106 8.92798 4.84277 8.86266 4.86621 8.80921C4.88672 8.76171 4.92188 8.72311 4.96582 8.69045C5.05078 8.63404 5.17676 8.59841 5.34375 8.59544C5.3877 8.59841 5.41992 8.5895 5.44922 8.57169ZM23.6924 4.68221L19.1016 7.80567L19.4883 5.86093C17.1797 4.86036 15.1641 5.02959 13.3477 6.59132C14.3613 2.82061 17.3027 1.50532 20.2617 1.98333L20.6572 0L23.6924 4.68221ZM11.8828 26.3178L16.4736 23.1973L16.0869 25.142C18.3955 26.1426 20.4111 25.9734 22.2275 24.4116C21.2139 28.1824 18.2725 29.4977 15.3135 29.0196L14.918 31.003L11.8828 26.3178ZM24.6035 13.1559L25.3535 13.1351L25.9775 13.1173C25.251 10.849 25.4941 8.76468 27.2432 6.99215C27.5391 7.966 28.207 8.76765 29.3379 9.36146C29.8799 9.76822 30.4043 10.2611 30.9111 10.8282C31.002 10.4541 30.6592 9.99684 30.2432 9.52773C30.627 9.72072 30.9814 9.9909 31.2334 10.5075C31.5234 11.1102 31.5205 11.615 31.4238 12.2682C31.3799 12.571 31.3066 12.856 31.2012 13.1173H32.2383C33.3311 10.748 32.6397 7.2267 30.4043 5.73623C29.7188 5.279 29.2266 5.29681 28.4209 5.29681C27.501 5.29681 27.0293 5.3265 26.2412 5.85499C25.0781 6.63586 24.3633 7.98381 24.0615 9.85729C24 10.7896 23.959 12.4047 24.6035 13.1559ZM27.4541 17.467L28.0137 15.4985L27.7383 15.1957C27.6152 15.0116 27.5889 14.8542 27.6563 14.7147C27.8057 14.4178 28.1133 14.4712 28.4004 14.4712C28.7022 14.4712 29.0713 14.4148 29.168 14.7948C29.2002 14.9225 29.1592 15.0561 29.0713 15.1927L28.7959 15.4955L29.3555 17.464L28.4033 18.2241L27.4541 17.467ZM32.458 16.7871C32.0332 15.9261 31.4971 15.1927 30.8701 14.5068C32.0479 14.97 33.252 15.4243 34.1455 15.9914C34.7139 16.3506 35.0068 16.6238 35.2354 17.0602C35.7246 17.9866 35.7744 18.8209 35.8506 19.8274L35.9238 20.825C36.0439 22.455 36.252 22.1581 34.6025 22.1581H28.4063H22.4443C20.9238 22.1581 20.7627 22.556 20.8623 21.1961L20.9619 19.8274C21.0352 18.8209 21.0879 17.9896 21.5772 17.0602C21.8057 16.6238 22.0986 16.3536 22.667 15.9914C23.5576 15.4243 24.7617 14.9671 25.9424 14.5068C25.3154 15.1927 24.7793 15.9261 24.3545 16.7871L25.582 16.7574L28.4063 19.2455L31.2305 16.7574L32.458 16.7871ZM5.93555 14.207L7.25391 18.138L7.91602 15.8073L7.59082 15.448C7.44434 15.2313 7.41211 15.0413 7.49414 14.878C7.66992 14.5247 8.0332 14.59 8.37598 14.59C8.7334 14.59 9.17285 14.5217 9.28418 14.973C9.32227 15.1244 9.27539 15.2818 9.16992 15.4451L8.84473 15.8043L9.50684 18.135L10.7021 14.204C11.5635 14.9908 14.1123 15.1482 15.0615 15.6826C15.3604 15.8518 15.6328 16.0686 15.8496 16.3595C16.1807 16.8019 16.3828 17.3809 16.4385 18.1143L16.6377 21.2912C16.5908 21.8107 16.2979 22.1106 15.7266 22.1552H8.37891H0.911133C0.339844 22.1136 0.046875 21.8137 0 21.2941L0.199219 18.1172C0.254883 17.3839 0.457031 16.8049 0.788086 16.3625C1.00488 16.0715 1.27734 15.8548 1.57617 15.6856C2.52539 15.1511 5.07422 14.9938 5.93555 14.207ZM11.8564 8.29853L11.9033 6.37755C11.8477 5.59075 11.5898 4.99693 11.1826 4.54861C10.1777 3.44708 8.30274 3.16502 6.8877 3.68164C6.65039 3.76774 6.42481 3.88057 6.2168 4.01121C5.63379 4.38828 5.15918 4.93755 4.97168 5.62044C4.92773 5.78077 4.89551 5.94407 4.88086 6.1044C4.85156 6.77837 4.86621 7.58002 4.91309 8.22134C4.8457 8.24806 4.78125 8.28072 4.72559 8.31635C4.6084 8.39651 4.52344 8.49746 4.46777 8.62216C4.41504 8.73796 4.38867 8.87156 4.39453 9.01705C4.40332 9.32583 4.54395 9.69993 4.81641 10.1097L5.55469 11.2973C5.86523 11.7961 6.19043 12.3097 6.61817 12.7046C7.06348 13.1173 7.60254 13.3934 8.32324 13.3964C9.09375 13.3994 9.65625 13.1084 10.1133 12.6749C10.5527 12.2563 10.8838 11.7159 11.2061 11.1726L12.0469 9.77119C12.0527 9.76228 12.0557 9.75338 12.0615 9.74447C12.293 9.21301 12.3428 8.84187 12.2197 8.59544C12.1436 8.44699 12.0205 8.35198 11.8564 8.29853Z" fill="#6E7FFF" style="fill:#6E7FFF;fill:color(display-p3 0.4314 0.4980 1.0000);fill-opacity:1;"/>
</g>
<defs>
<clipPath id="clip0_1051_14462">
<rect width="36" height="31" fill="white" style="fill:white;fill-opacity:1;"/>
</clipPath>
</defs>
</svg>
