<svg width="36" height="22" viewBox="0 0 36 22" fill="none" xmlns="http://www.w3.org/2000/svg">
<g clip-path="url(#clip0_1051_14427)">
<path fill-rule="evenodd" clip-rule="evenodd" d="M0 21.9999C0 14.1695 7.33594 18.504 7.89844 13.703C7.95996 13.1804 6.73535 11.1874 6.45703 10.2307C5.85645 9.26522 5.64258 7.73577 6.29883 6.71711C6.55957 6.3126 6.44824 4.83629 6.44824 4.27824C6.44824 2.70154 7.18652 1.79804 8.18555 0.956541C8.55176 0.649468 8.61328 0.28039 9.14648 0.150475C11.7803 -0.490244 16.0898 0.968352 16.0898 4.2812C16.0898 4.98392 15.9287 6.27126 16.3066 6.8234C16.6729 7.35783 16.7168 8.13437 16.585 8.86071C16.4414 8.97291 16.3008 9.09397 16.1602 9.21798C15.8467 9.49848 15.5332 9.80851 15.2256 10.1481C15.2109 10.1599 15.1992 10.1746 15.1846 10.1864L15.1816 10.1894C15.0352 10.337 14.9209 10.526 14.8652 10.7445C14.7422 11.208 14.8975 11.6805 15.2285 11.9787C14.8389 12.708 14.4902 13.4018 14.5518 13.706C14.6484 14.1991 15.0117 14.6538 15.5303 15.0701V15.0789C15.5303 15.1055 15.5332 15.1321 15.5361 15.1557C15.5537 15.3358 15.583 15.5071 15.624 15.6606C15.6709 15.8319 15.7324 16.0002 15.8115 16.1566C15.9492 16.4312 16.1338 16.6704 16.3682 16.8594C16.4854 16.9539 16.6143 17.0365 16.749 17.1015C16.7842 17.1428 16.8193 17.1842 16.8545 17.2225L16.9131 17.2934C15.8408 17.5001 15.0967 17.695 14.4697 18.3209C13.7754 19.0148 13.5117 19.9892 13.5117 21.746C13.5117 21.8345 13.5205 21.9202 13.5322 22.0028L0 21.9999ZM22.5674 8.58612C23.8857 0.749857 31.4854 0.935873 32.6279 9.14712C33.3779 14.5534 36.5947 14.3585 31.5732 14.3585H29.5693C29.5605 15.7344 29.3496 16.4371 30.7646 17.2107C32.1797 17.9814 36 18.38 36 20.3346V21.5865C36 21.6869 35.918 21.7696 35.8184 21.7696H27.0088V21.743C27.0088 19.9862 26.7422 19.0089 26.0479 18.318C25.5 17.7717 24.8643 17.5562 23.9971 17.3702C24.1699 17.2905 24.3311 17.2048 24.4834 17.1133C25.7285 16.3604 25.5176 15.6045 25.5088 14.3585H24.9668C24.958 14.2935 24.9463 14.2345 24.9346 14.1754H24.9316C24.873 13.9008 24.7764 13.6351 24.6357 13.3989C24.6123 13.3576 24.5859 13.3162 24.5596 13.2778V13.0948C24.7266 12.4718 24.7705 11.7838 24.6621 11.146C24.542 10.4286 24.2314 9.75536 23.7041 9.25637C23.4316 8.99654 23.127 8.80462 22.7959 8.67175C22.7227 8.63632 22.6465 8.60974 22.5674 8.58612ZM16.0488 11.0545C17.9326 8.95815 20.1094 7.82139 21.7383 9.6845C22.166 9.70516 22.5498 9.84689 22.8691 10.151C23.54 10.7858 23.6455 11.9757 23.3379 12.9206V13.7444C23.5459 13.8831 23.6807 14.14 23.7393 14.4323C23.7803 14.6213 23.7891 14.8309 23.7686 15.0287C23.748 15.2354 23.6982 15.4333 23.6162 15.5956C23.499 15.8289 23.3232 15.9913 23.083 16.0267C22.8486 16.2807 22.6172 16.5493 22.4121 16.8092C22.1865 17.0956 21.9932 17.3643 21.8613 17.5887C21.7588 17.7599 21.791 17.8721 21.8291 17.9991C21.8467 18.064 21.8672 18.129 21.8789 18.1999C22.292 18.2884 22.6641 18.3593 22.998 18.4243C25.1221 18.8258 25.7842 18.9498 25.7842 21.7371C25.7842 21.8788 25.6699 21.994 25.5293 21.994H14.9912C14.8506 21.994 14.7363 21.8788 14.7363 21.7371C14.7363 18.9498 15.3955 18.8258 17.5225 18.4243C17.8594 18.3593 18.2373 18.2884 18.6504 18.1999C18.665 18.1438 18.6826 18.0936 18.7002 18.0404C18.7441 17.9194 18.7852 17.7954 18.6592 17.5887C18.5244 17.3672 18.3311 17.0956 18.1084 16.8092C17.9033 16.5493 17.6719 16.2777 17.4375 16.0267C17.1973 15.9913 17.0186 15.8289 16.9043 15.5956C16.8223 15.4362 16.7725 15.2354 16.752 15.0287C16.7344 14.8309 16.7432 14.6213 16.7812 14.4323C16.8428 14.14 16.9746 13.8831 17.1797 13.7444L16.9043 13.579C16.8281 12.7611 17.0449 11.3291 16.0488 11.0545Z" fill="#6E7FFF" style="fill:#6E7FFF;fill:color(display-p3 0.4327 0.4989 1.0000);fill-opacity:1;"/>
</g>
<defs>
<clipPath id="clip0_1051_14427">
<rect width="36" height="22" fill="white" style="fill:white;fill-opacity:1;"/>
</clipPath>
</defs>
</svg>
